<svg xmlns="http://www.w3.org/2000/svg" width="32" height="32" viewBox="0 0 32 32" fill="none"><g clip-path="url(#clip0_187_2)">
<rect width="32" height="32" rx="8" fill="#060D14"></rect>
<path d="M12.2109 23.9941C12.2109 23.791 12.2194 23.5879 12.2363 23.3848C12.2533 23.1816 12.2617 22.9701 12.2617 22.75C12.2617 22.4792 12.2448 22.2126 12.2109 21.9502C12.1855 21.6794 12.1559 21.4085 12.1221 21.1377C12.0882 20.8669 12.0544 20.5918 12.0205 20.3125C11.9951 20.0332 11.9824 19.7497 11.9824 19.4619C11.9824 19.0049 11.9613 18.5521 11.9189 18.1035C11.8851 17.6549 11.847 17.2021 11.8047 16.7451C11.7624 16.2881 11.7201 15.8268 11.6777 15.3613C11.6439 14.8874 11.6227 14.4049 11.6143 13.9141L11.5889 11.2354C11.318 11.2438 11.0218 11.2692 10.7002 11.3115C10.3786 11.3454 10.0485 11.3877 9.70996 11.4385C9.37988 11.4808 9.04134 11.5189 8.69434 11.5527C8.35579 11.5866 8.03418 11.6035 7.72949 11.6035C7.1709 11.6035 6.76888 11.54 6.52344 11.4131C6.28646 11.2777 6.15951 11.0745 6.14258 10.8037C6.11719 10.4398 6.16374 10.1436 6.28223 9.91504C6.40072 9.68652 6.55729 9.50879 6.75195 9.38184C6.94661 9.24642 7.16667 9.15332 7.41211 9.10254C7.66602 9.05176 7.91146 9.02637 8.14844 9.02637C9.40104 9.02637 10.6621 9.00098 11.9316 8.9502C13.2096 8.89941 14.5257 8.87402 15.8799 8.87402C16.0745 8.87402 16.2692 8.86133 16.4639 8.83594C16.6585 8.80208 16.8532 8.76823 17.0479 8.73438C17.251 8.70052 17.4499 8.6709 17.6445 8.64551C17.8477 8.61165 18.055 8.59473 18.2666 8.59473C18.4697 8.59473 18.6517 8.64128 18.8125 8.73438C18.9733 8.82747 19.113 8.9502 19.2314 9.10254C19.3499 9.24642 19.4388 9.41569 19.498 9.61035C19.5658 9.79655 19.5996 9.98698 19.5996 10.1816C19.5996 10.3001 19.5615 10.4398 19.4854 10.6006C19.4092 10.7529 19.3076 10.901 19.1807 11.0449C19.0537 11.1888 18.9098 11.3115 18.749 11.4131C18.5882 11.5062 18.4274 11.5527 18.2666 11.5527C18.0719 11.5527 17.8942 11.5231 17.7334 11.4639C17.5726 11.3962 17.4202 11.3242 17.2764 11.248C17.141 11.1634 17.014 11.0915 16.8955 11.0322C16.777 10.9645 16.667 10.9307 16.5654 10.9307C16.4808 10.9307 16.3158 10.9349 16.0703 10.9434C15.8333 10.9434 15.571 10.9476 15.2832 10.9561C15.0039 10.9645 14.7331 10.9772 14.4707 10.9941C14.2168 11.0111 14.0264 11.0322 13.8994 11.0576V11.3369C13.8994 11.4723 13.8994 11.6839 13.8994 11.9717C13.9079 12.251 13.9121 12.6572 13.9121 13.1904C13.9121 14.0452 13.9417 14.9001 14.001 15.7549C14.0687 16.6012 14.1576 17.4603 14.2676 18.332C14.3184 19.1615 14.3564 19.9909 14.3818 20.8203C14.4157 21.6497 14.4919 22.4961 14.6104 23.3594C14.6188 23.4271 14.6442 23.5371 14.6865 23.6895C14.7288 23.8418 14.7712 24.0068 14.8135 24.1846C14.8558 24.3538 14.8939 24.5189 14.9277 24.6797C14.9701 24.8405 14.9912 24.959 14.9912 25.0352C14.9912 25.2298 14.9785 25.3949 14.9531 25.5303C14.9277 25.6572 14.8727 25.763 14.7881 25.8477C14.7035 25.9323 14.5807 25.9958 14.4199 26.0381C14.2591 26.0804 14.0475 26.1058 13.7852 26.1143C13.4128 26.1312 13.1208 26.0846 12.9092 25.9746C12.6976 25.8646 12.541 25.7122 12.4395 25.5176C12.3379 25.3145 12.2744 25.0817 12.249 24.8193C12.2236 24.557 12.2109 24.2819 12.2109 23.9941ZM23.7754 15.75C23.6868 15.75 23.5592 15.7292 23.3926 15.6875C23.2311 15.6406 23.0697 15.5729 22.9082 15.4844C22.752 15.3958 22.6139 15.2839 22.4941 15.1484C22.3796 15.013 22.3223 14.8542 22.3223 14.6719C22.3223 14.5833 22.3405 14.4922 22.377 14.3984C22.4134 14.3047 22.4629 14.2188 22.5254 14.1406C22.5931 14.0625 22.6738 14 22.7676 13.9531C22.8613 13.901 22.9655 13.875 23.0801 13.875C23.179 13.875 23.3014 13.9141 23.4473 13.9922C23.5983 14.0703 23.7415 14.1719 23.877 14.2969C24.0124 14.4167 24.1296 14.5521 24.2285 14.7031C24.3275 14.849 24.377 14.9922 24.377 15.1328C24.377 15.1693 24.3639 15.2214 24.3379 15.2891C24.3171 15.3568 24.2806 15.4245 24.2285 15.4922C24.1816 15.5599 24.1191 15.6198 24.041 15.6719C23.9681 15.724 23.8796 15.75 23.7754 15.75ZM22.6895 25.4453C22.679 25.4036 22.666 25.3229 22.6504 25.2031C22.64 25.0833 22.627 24.8854 22.6113 24.6094C22.6009 24.3333 22.5905 23.9609 22.5801 23.4922C22.5749 23.0182 22.5723 22.4089 22.5723 21.6641C22.5723 21.0807 22.6061 20.4844 22.6738 19.875C22.7467 19.2604 22.8353 18.6797 22.9395 18.1328C22.9447 18.0859 22.9629 18.0234 22.9941 17.9453C23.0306 17.862 23.0775 17.7812 23.1348 17.7031C23.1973 17.6198 23.2702 17.5495 23.3535 17.4922C23.4368 17.4297 23.5332 17.3984 23.6426 17.3984C23.7572 17.3984 23.8509 17.4193 23.9238 17.4609C23.9967 17.4974 24.0514 17.5521 24.0879 17.625C24.1296 17.6927 24.1582 17.7734 24.1738 17.8672C24.1895 17.9557 24.1973 18.0495 24.1973 18.1484C24.1973 18.4245 24.1868 18.7292 24.166 19.0625C24.1452 19.3906 24.1217 19.7266 24.0957 20.0703C24.0749 20.4089 24.054 20.7422 24.0332 21.0703C24.0176 21.3984 24.0098 21.6953 24.0098 21.9609C24.0098 22.1953 24.0254 22.4609 24.0566 22.7578C24.0931 23.0547 24.1322 23.3594 24.1738 23.6719C24.2207 23.9844 24.2598 24.2917 24.291 24.5938C24.3275 24.8906 24.3457 25.1615 24.3457 25.4062C24.3457 25.6615 24.2806 25.8594 24.1504 26C24.0202 26.1354 23.8743 26.2031 23.7129 26.2031C23.4004 26.2031 23.166 26.1458 23.0098 26.0312C22.8535 25.9219 22.7467 25.7266 22.6895 25.4453Z" fill="#FCBF49"></path>
</g><defs>
<clipPath id="clip0_187_2">
<rect width="32" height="32" rx="8" fill="white"></rect>
</clipPath>
</defs></svg>