<svg width="90" height="30" viewBox="0 0 90 30" fill="none" xmlns="http://www.w3.org/2000/svg">
<g opacity="0.8">
<rect width="90" height="30" rx="15" fill="white"/>
<path d="M14.4828 2.06897C12.8526 2.06897 11.2383 2.39803 9.73221 3.03737C8.2261 3.67671 6.85761 4.61381 5.70489 5.79515C3.37685 8.18099 2.06897 11.4169 2.06897 14.791C2.06897 20.4141 5.63173 25.1848 10.56 26.8769C11.1807 26.9786 11.3793 26.5842 11.3793 26.2408V24.0907C7.94069 24.8541 7.20828 22.386 7.20828 22.386C6.63725 20.9102 5.83035 20.5159 5.83035 20.5159C4.70069 19.7271 5.91725 19.7525 5.91725 19.7525C7.15862 19.8416 7.81656 21.0629 7.81656 21.0629C8.89656 22.9966 10.7214 22.4242 11.429 22.1188C11.5407 21.2919 11.8635 20.7321 12.211 20.4141C9.45518 20.096 6.56276 19.0019 6.56276 14.1549C6.56276 12.7427 7.03449 11.6105 7.84138 10.7072C7.71725 10.3892 7.28276 9.06606 7.96552 7.3486C7.96552 7.3486 9.00828 7.0051 11.3793 8.64624C12.36 8.36636 13.4276 8.22641 14.4828 8.22641C15.5379 8.22641 16.6055 8.36636 17.5862 8.64624C19.9572 7.0051 21 7.3486 21 7.3486C21.6828 9.06606 21.2483 10.3892 21.1241 10.7072C21.931 11.6105 22.4028 12.7427 22.4028 14.1549C22.4028 19.0147 19.4979 20.0833 16.7297 20.4014C17.1766 20.7957 17.5862 21.5718 17.5862 22.7549V26.2408C17.5862 26.5842 17.7848 26.9913 18.4179 26.8769C23.3462 25.1721 26.8966 20.4141 26.8966 14.791C26.8966 13.1203 26.5755 11.466 25.9516 9.92246C25.3278 8.37896 24.4134 6.9765 23.2606 5.79515C22.1079 4.61381 20.7394 3.67671 19.2333 3.03737C17.7272 2.39803 16.113 2.06897 14.4828 2.06897Z" fill="black"/>
<path d="M43.1932 13C43.0838 12.6652 42.9396 12.3653 42.7607 12.1001C42.585 11.8317 42.3745 11.603 42.1293 11.4141C41.8873 11.2251 41.6122 11.081 41.304 10.9815C40.9957 10.8821 40.6577 10.8324 40.2898 10.8324C39.6866 10.8324 39.138 10.9882 38.6442 11.2997C38.1503 11.6113 37.7576 12.0703 37.4659 12.6768C37.1742 13.2834 37.0284 14.0275 37.0284 14.9091C37.0284 15.7907 37.1759 16.5348 37.4709 17.1413C37.7659 17.7479 38.1652 18.2069 38.669 18.5185C39.1728 18.83 39.7396 18.9858 40.3693 18.9858C40.9527 18.9858 41.4664 18.8615 41.9105 18.6129C42.358 18.361 42.706 18.0064 42.9545 17.549C43.2064 17.0883 43.3324 16.5464 43.3324 15.9233L43.7102 16.0028H40.6477V14.9091H44.5256V16.0028C44.5256 16.8414 44.3466 17.5705 43.9886 18.1903C43.634 18.8101 43.1435 19.2907 42.517 19.6321C41.8939 19.9702 41.178 20.1392 40.3693 20.1392C39.4678 20.1392 38.6757 19.9271 37.9929 19.5028C37.3134 19.0786 36.7831 18.4754 36.402 17.6932C36.0241 16.911 35.8352 15.983 35.8352 14.9091C35.8352 14.1037 35.9429 13.3795 36.1584 12.7365C36.3771 12.0902 36.6854 11.54 37.0831 11.0859C37.4808 10.6319 37.9515 10.2839 38.495 10.0419C39.0386 9.79995 39.6368 9.67898 40.2898 9.67898C40.8267 9.67898 41.3272 9.76018 41.7912 9.92258C42.2585 10.0817 42.6745 10.3087 43.0391 10.6037C43.407 10.8954 43.7135 11.245 43.9588 11.6527C44.2041 12.0571 44.3731 12.5062 44.4659 13H43.1932ZM46.9567 20V12.3636H48.13V20H46.9567ZM47.5533 11.0909C47.3246 11.0909 47.1274 11.013 46.9616 10.8572C46.7992 10.7015 46.718 10.5142 46.718 10.2955C46.718 10.0767 46.7992 9.88944 46.9616 9.73366C47.1274 9.57789 47.3246 9.5 47.5533 9.5C47.782 9.5 47.9775 9.57789 48.1399 9.73366C48.3056 9.88944 48.3885 10.0767 48.3885 10.2955C48.3885 10.5142 48.3056 10.7015 48.1399 10.8572C47.9775 11.013 47.782 11.0909 47.5533 11.0909ZM53.6 12.3636V13.358H49.6426V12.3636H53.6ZM50.796 10.5341H51.9693V17.8125C51.9693 18.1439 52.0173 18.3925 52.1135 18.5582C52.2129 18.7206 52.3388 18.83 52.4913 18.8864C52.6471 18.9394 52.8111 18.9659 52.9835 18.9659C53.1127 18.9659 53.2188 18.9593 53.3017 18.946C53.3845 18.9295 53.4508 18.9162 53.5005 18.9062L53.7392 19.9602C53.6596 19.9901 53.5486 20.0199 53.4061 20.0497C53.2636 20.0829 53.0829 20.0994 52.8642 20.0994C52.5327 20.0994 52.2079 20.0282 51.8897 19.8857C51.5749 19.7431 51.313 19.526 51.1042 19.2344C50.8987 18.9427 50.796 18.5748 50.796 18.1307V10.5341ZM56.7022 15.4062V20H55.5289V9.81818H56.7022V13.5568H56.8017C56.9806 13.1624 57.2491 12.8492 57.6071 12.6172C57.9683 12.3819 58.4489 12.2642 59.0488 12.2642C59.5692 12.2642 60.0249 12.3686 60.416 12.5774C60.8071 12.7829 61.1104 13.0994 61.3258 13.527C61.5446 13.9512 61.6539 14.4915 61.6539 15.1477V20H60.4806V15.2273C60.4806 14.6207 60.3232 14.1518 60.0083 13.8203C59.6968 13.4856 59.2643 13.3182 58.7108 13.3182C58.3263 13.3182 57.9816 13.3994 57.6767 13.5618C57.3751 13.7242 57.1364 13.9612 56.9608 14.2727C56.7884 14.5843 56.7022 14.9621 56.7022 15.4062ZM68.6129 16.8778V12.3636H69.7862V20H68.6129V18.7074H68.5334C68.3544 19.0952 68.076 19.425 67.6982 19.6967C67.3203 19.9652 66.843 20.0994 66.2663 20.0994C65.7891 20.0994 65.3648 19.995 64.9936 19.7862C64.6224 19.5741 64.3307 19.2559 64.1186 18.8317C63.9065 18.4041 63.8004 17.8655 63.8004 17.2159V12.3636H64.9737V17.1364C64.9737 17.6932 65.1295 18.1373 65.4411 18.4688C65.7559 18.8002 66.157 18.9659 66.6442 18.9659C66.9358 18.9659 67.2325 18.8913 67.5341 18.7422C67.839 18.593 68.0942 18.3643 68.2997 18.0561C68.5085 17.7479 68.6129 17.3551 68.6129 16.8778ZM72.0943 20V9.81818H73.2676V13.5767H73.367C73.4532 13.4441 73.5725 13.2751 73.725 13.0696C73.8807 12.8608 74.1028 12.6752 74.3912 12.5128C74.6828 12.3471 75.0772 12.2642 75.5744 12.2642C76.2174 12.2642 76.7842 12.425 77.2747 12.7464C77.7652 13.0679 78.148 13.5237 78.4231 14.1136C78.6982 14.7036 78.8358 15.3996 78.8358 16.2017C78.8358 17.0104 78.6982 17.7114 78.4231 18.3047C78.148 18.8946 77.7669 19.352 77.2797 19.6768C76.7924 19.9983 76.2306 20.1591 75.5943 20.1591C75.1038 20.1591 74.711 20.0779 74.416 19.9155C74.121 19.7498 73.894 19.5625 73.7349 19.3537C73.5758 19.1416 73.4532 18.9659 73.367 18.8267H73.2278V20H72.0943ZM73.2477 16.1818C73.2477 16.7585 73.3322 17.2673 73.5012 17.7081C73.6703 18.1456 73.9172 18.4886 74.242 18.7372C74.5668 18.9825 74.9645 19.1051 75.4352 19.1051C75.9257 19.1051 76.335 18.9759 76.6632 18.7173C76.9946 18.4555 77.2432 18.1042 77.4089 17.6634C77.5779 17.2192 77.6625 16.7254 77.6625 16.1818C77.6625 15.6449 77.5796 15.161 77.4139 14.7301C77.2515 14.2959 77.0046 13.9529 76.6731 13.701C76.345 13.4458 75.9324 13.3182 75.4352 13.3182C74.9579 13.3182 74.5569 13.4392 74.2321 13.6811C73.9073 13.9197 73.662 14.2545 73.4963 14.6854C73.3306 15.1129 73.2477 15.6117 73.2477 16.1818Z" fill="black"/>
</g>
</svg>
